<svg width="32" height="32" viewBox="0 0 32 32" fill="none" xmlns="http://www.w3.org/2000/svg">
<rect x="1" y="1" width="30" height="30" rx="15" stroke="#51BA65" stroke-width="2"/>
<path d="M14.92 16.3399H14.5867V16.3466H14.1057C14.1759 16.2968 14.2521 16.2446 14.334 16.189L14.3345 16.1886C14.3459 16.1808 14.3574 16.173 14.3691 16.165C14.9145 15.7934 15.7533 15.2218 15.7533 14.1066C15.7533 13.0225 14.8774 12.1466 13.7933 12.1466C12.7083 12.1466 11.8333 13.03 11.8333 14.1066C11.8333 14.564 12.2092 14.9399 12.6667 14.9399C13.1241 14.9399 13.5 14.564 13.5 14.1066C13.5 13.9347 13.6333 13.8066 13.7867 13.8066C13.9492 13.8066 14.08 13.9373 14.08 14.0999C14.08 14.1885 14.0526 14.2637 13.9543 14.3677C13.8424 14.4862 13.6663 14.6128 13.3935 14.797L13.3935 14.797L13.3918 14.7981C13.3791 14.8068 13.3663 14.8155 13.3534 14.8243C12.8643 15.1586 12.2165 15.6013 11.9499 16.4163L11.9498 16.4163L11.9474 16.4241C11.8395 16.7837 11.8918 17.1731 12.1239 17.4896C12.3596 17.815 12.7327 18.0066 13.1333 18.0066H14.92C15.3774 18.0066 15.7533 17.6307 15.7533 17.1733C15.7533 16.7158 15.3774 16.3399 14.92 16.3399ZM15.7985 16.4341L15.7985 16.4341L15.8002 16.4371C16.0261 16.8165 16.434 17.0533 16.88 17.0533H16.88H16.8801H16.8801H16.8802H16.8802H16.8802H16.8803H16.8803H16.8803H16.8804H16.8804H16.8805H16.8805H16.8805H16.8806H16.8806H16.8806H16.8807H16.8807H16.8808H16.8808H16.8808H16.8809H16.8809H16.8809H16.881H16.881H16.881H16.8811H16.8811H16.8811H16.8812H16.8812H16.8812H16.8813H16.8813H16.8813H16.8814H16.8814H16.8814H16.8815H16.8815H16.8815H16.8816H16.8816H16.8816H16.8817H16.8817H16.8817H16.8818H16.8818H16.8818H16.8819H16.8819H16.8819H16.882H16.882H16.882H16.882H16.8821H16.8821H16.8821H16.8822H16.8822H16.8822H16.8823H16.8823H16.8823H16.8823H16.8824H16.8824H16.8824H16.8825H16.8825H16.8825H16.8825H16.8826H16.8826H16.8826H16.8827H16.8827H16.8827H16.8827H16.8828H16.8828H16.8828H16.8829H16.8829H16.8829H16.8829H16.883H16.883H16.883H16.883H16.8831H16.8831H16.8831H16.8831H16.8832H16.8832H16.8832H16.8832H16.8833H16.8833H16.8833H16.8833H16.8834H16.8834H16.8834H16.8834H16.8835H16.8835H16.8835H16.8835H16.8836H16.8836H16.8836H16.8836H16.8837H16.8837H16.8837H16.8837H16.8837H16.8838H16.8838H16.8838H16.8838H16.8839H16.8839H16.8839H16.8839H16.8839H16.884H16.884H16.884H16.884H16.884H16.8841H16.8841H16.8841H16.8841H16.8842H16.8842H16.8842H16.8842H16.8842H16.8843H16.8843H16.8843H16.8843H16.8843H16.8843H16.8844H16.8844H16.8844H16.8844H16.8844H16.8845H16.8845H16.8845H16.8845H16.8845H16.8846H16.8846H16.8846H16.8846H16.8846H16.8846H16.8847H16.8847H16.8847H16.8847H16.8847H16.8847H16.8848H16.8848H16.8848H16.8848H16.8848H16.8848H16.8849H16.8849H16.8849H16.8849H16.8849H16.8849H16.885H16.885H16.885H16.885H16.885H16.885H16.8851H16.8851H16.8851H16.8851H16.8851H16.8851H16.8851H16.8852H16.8852H16.8852H16.8852H16.8852H16.8852H16.8852H16.8853H16.8853H16.8853H16.8853H16.8853H16.8853H16.8853H16.8854H16.8854H16.8854H16.8854H16.8854H16.8854H16.8854H16.8854H16.8855H16.8855H16.8855H16.8855H16.8855H16.8855H16.8855H16.8855H16.8856H16.8856H16.8856H16.8856H16.8856H16.8856H16.8856H16.8856H16.8856H16.8857H16.8857H16.8857H16.8857H16.8857H16.8857H16.8857H16.8857H16.8857H16.8858H16.8858H16.8858H16.8858H16.8858H16.8858H16.8858H16.8858H16.8858H16.8858H16.8859H16.8859H16.8859H16.8859H16.8859H16.8859H16.8859H16.8859H16.8859H16.8859H16.8859H16.886H16.886H16.886H16.886H16.886H16.886H16.886H16.886H16.886H16.886H16.886H16.886H16.8861H16.8861H16.8861H16.8861H16.8861H16.8861H16.8861H16.8861H16.8861H16.8861H16.8861H16.8861H16.8861H16.8862H16.8862H16.8862H16.8862H16.8862H16.8862H16.8862H16.8862H16.8862H16.8862H16.8862H16.8862H16.8862H16.8862H16.8862H16.8863H16.8863H16.8863H16.8863H16.8863H16.8863H16.8863H16.8863H16.8863H16.8863H16.8863H16.8863H16.8863H16.8863H16.8863H16.8863H16.8863H16.8863H16.8864H16.8864H16.8864H16.8864H16.8864H16.8864H16.8864H16.8864H16.8864H16.8864H16.8864H16.8864H16.8864H16.8864H16.8864H16.8864H16.8864H16.8864H16.8864H16.8864H16.8864H16.8864H16.8865H16.8865H16.8865H16.8865H16.8865H16.8865H16.8865H16.8865H16.8865H16.8865H16.8865H16.8865H16.8865H16.8865H16.8865H16.8865H16.8865H16.8865H16.8865H16.8866H16.8866H16.8866H16.8866H16.8866H16.8866H16.8866H16.8866H16.8866H16.8866H16.8866H16.8866H16.8866H16.8866H16.8866H16.8866H16.8866H16.8866H16.8866H16.8866H16.8866H16.8866H16.8867H16.8867H16.8867H16.8867H16.8867H17.86V17.1799C17.86 17.6373 18.2359 18.0133 18.6933 18.0133C19.1508 18.0133 19.5267 17.6373 19.5267 17.1799V17.0306C19.8887 16.9444 20.1667 16.6218 20.1667 16.2266C20.1667 15.8333 19.8887 15.5002 19.52 15.4146V13.3825C19.5279 12.8276 19.1576 12.3543 18.6419 12.2005L18.6419 12.2004L18.6368 12.199C18.1155 12.0527 17.5567 12.2634 17.2643 12.7294L17.2635 12.7308C16.7815 13.5073 16.2534 14.3964 15.7993 15.1777C15.5703 15.5637 15.5727 16.0457 15.7985 16.4341ZM12 9.66659H20C20.9255 9.66659 21.6667 10.4069 21.6667 11.3133V18.5866C21.6667 19.4929 20.9255 20.2333 20 20.2333H19.5C18.8877 20.2333 18.2892 20.4731 17.8517 20.9102C17.8514 20.9104 17.8512 20.9106 17.851 20.9109L16.7125 22.036C16.3223 22.4212 15.6844 22.4212 15.2942 22.036L14.1557 20.9109C14.1555 20.9107 14.1553 20.9105 14.1551 20.9102C13.718 20.4735 13.1262 20.2333 12.5067 20.2333H12C11.0745 20.2333 10.3333 19.4929 10.3333 18.5866V11.3133C10.3333 10.4069 11.0745 9.66659 12 9.66659Z" fill="#51BA65" stroke="#51BA65" stroke-width="0.666667"/>
<path d="M17.8587 15.38H17.6078C17.6904 15.2399 17.7743 15.0984 17.8587 14.9565V15.38Z" fill="#51BA65" stroke="#51BA65" stroke-width="0.666667"/>
</svg>
