<svg width="32" height="32" viewBox="0 0 32 32" fill="none" xmlns="http://www.w3.org/2000/svg">
<rect x="1" y="1" width="30" height="30" rx="15" stroke="#51BA65" stroke-width="2"/>
<path d="M21.3048 17.4406L17.965 16.0007L17.9651 16.0006L17.9568 15.9973C17.7547 15.9165 17.5152 15.9048 17.3134 16.0374C17.1094 16.1714 17.0264 16.3984 17.0264 16.6201V18.5601C17.0264 18.6917 17.0616 18.8287 17.1087 18.9439C17.1548 19.0565 17.2263 19.1823 17.3267 19.2785L18.8702 20.8286L18.8707 20.8292C18.8948 20.8533 18.9296 20.9108 18.9489 20.9953C18.9681 21.0793 18.9629 21.1499 18.9502 21.188L18.9499 21.1887L21.3048 17.4406ZM21.3048 17.4406L21.173 17.7468L21.305 17.4407L21.3048 17.4406ZM21.2346 15.393L21.2351 15.3932L14.6821 19.2758L14.4464 19.0401L14.6826 19.2753L14.6824 19.2755C14.7782 19.1796 14.8475 19.054 14.8925 18.9414C14.938 18.8279 14.973 18.6915 14.973 18.5601V17.3601V16.6201C14.973 16.3955 14.8865 16.1688 14.6842 16.0353C14.4817 15.9016 14.2395 15.9115 14.0339 16.0009C14.0337 16.001 14.0334 16.0011 14.0332 16.0012L10.6946 17.4406C10.5058 17.5219 10.3903 17.4916 10.3343 17.4551C10.2787 17.4188 10.2064 17.3274 10.2064 17.1268V16.2468C10.2064 16.0984 10.2643 15.9159 10.3744 15.7477C10.4847 15.5793 10.6266 15.4567 10.7602 15.4016L10.7602 15.4016L10.7647 15.3997L14.5647 13.7664L14.5735 13.7626L14.5821 13.7583C14.6998 13.6994 14.7913 13.6047 14.8529 13.5095C14.9141 13.4149 14.9664 13.2878 14.9664 13.1468V11.1068C14.9664 10.8632 15.0589 10.5713 15.2247 10.3011C15.3898 10.0319 15.6079 9.81658 15.824 9.70398C15.9294 9.65206 16.0574 9.65217 16.1627 9.7043C16.3829 9.8174 16.6025 10.0318 16.768 10.299C16.9341 10.567 17.0264 10.8568 17.0264 11.1001V13.1401C17.0264 13.2811 17.0786 13.4083 17.1399 13.5029C17.2014 13.598 17.293 13.6928 17.4106 13.7516L17.4201 13.7563L17.4298 13.7604L18.1213 14.053L18.1232 14.0538L21.2346 15.393ZM13.0566 21.1901L13.0562 21.1887L12.7397 21.2935L13.0569 21.1908C13.0568 21.1906 13.0567 21.1903 13.0566 21.1901ZM13.7928 22.3095L13.7586 22.3383L13.973 22.5935L13.8218 22.2964C13.8122 22.3013 13.8026 22.3056 13.7928 22.3095ZM15.5597 21.2601L15.3453 21.0049L15.3439 21.0061C15.3433 21.0066 15.3428 21.0071 15.3422 21.0075L15.5597 21.2601ZM16.6489 21.0061L16.6475 21.0049L16.433 21.2601L16.6506 21.0075C16.65 21.007 16.6494 21.0066 16.6489 21.0061ZM18.0197 22.5935L18.2342 22.3383L18.1979 22.3078C18.1873 22.3038 18.1769 22.2993 18.1666 22.2942L18.0197 22.5935ZM18.6504 22.094L18.6499 22.0954L18.9664 22.2001L18.6507 22.0931C18.6506 22.0934 18.6505 22.0937 18.6504 22.094Z" fill="#51BA65" stroke="#51BA65" stroke-width="0.666667"/>
</svg>
