<svg width="48" height="48" viewBox="0 0 48 48" fill="none" xmlns="http://www.w3.org/2000/svg">
<path d="M5 24C5 13.5123 13.5123 5 24 5C34.4877 5 43 13.5123 43 24C43 34.4877 34.4877 43 24 43C13.5123 43 5 34.4877 5 24ZM26.7671 31.7671L32.7671 25.7671C33.7376 24.7966 33.7376 23.2034 32.7671 22.2329L26.7671 16.2329C25.7966 15.2624 24.2034 15.2624 23.2329 16.2329C22.2624 17.2034 22.2624 18.7966 23.2329 19.7671L24.9658 21.5H17C15.6277 21.5 14.5 22.6277 14.5 24C14.5 25.3723 15.6277 26.5 17 26.5H24.9658L23.2329 28.2329C22.2624 29.2034 22.2624 30.7966 23.2329 31.7671C23.7303 32.2645 24.3691 32.5 25 32.5C25.6309 32.5 26.2697 32.2645 26.7671 31.7671Z" fill="white" stroke="white" stroke-width="2"/>
</svg>
