<svg width="32" height="32" viewBox="0 0 32 32" fill="none" xmlns="http://www.w3.org/2000/svg">
<rect x="1" y="1" width="30" height="30" rx="15" stroke="#51BA65" stroke-width="2"/>
<path d="M20.4536 12.4915L20.4535 12.4915L20.4558 12.5016C20.5089 12.7314 20.534 12.9854 20.534 13.28V16.7133C20.534 17.6765 20.2605 18.3096 19.8338 18.7057C19.4027 19.1061 18.7629 19.3133 17.934 19.3133H12.074C11.7931 19.3133 11.5317 19.2883 11.2938 19.2348L11.2836 19.2325L11.2733 19.2309C11.1335 19.2085 10.995 19.1686 10.8625 19.1206C10.4252 18.957 10.0862 18.6918 9.85263 18.3133C9.61653 17.9307 9.47396 17.409 9.47396 16.7133V13.28C9.47396 12.3169 9.74746 11.6838 10.1741 11.2876C10.6052 10.8873 11.2451 10.68 12.074 10.68H17.9273C18.6302 10.68 19.1987 10.8294 19.617 11.1184C20.0279 11.4024 20.325 11.8424 20.4536 12.4915ZM11.1873 16.8333C11.6447 16.8333 12.0206 16.4574 12.0206 16V14C12.0206 13.5426 11.6447 13.1667 11.1873 13.1667C10.7299 13.1667 10.354 13.5426 10.354 14V16C10.354 16.4574 10.7299 16.8333 11.1873 16.8333ZM12.9073 15C12.9073 16.1574 13.8432 17.0933 15.0006 17.0933C16.1581 17.0933 17.094 16.1574 17.094 15C17.094 13.8426 16.1581 12.9067 15.0006 12.9067C13.8432 12.9067 12.9073 13.8426 12.9073 15ZM18.8073 16.8333C19.2647 16.8333 19.6406 16.4574 19.6406 16V14C19.6406 13.5426 19.2647 13.1667 18.8073 13.1667C18.3499 13.1667 17.974 13.5426 17.974 14V16C17.974 16.4574 18.3499 16.8333 18.8073 16.8333Z" fill="#51BA65" stroke="#51BA65" stroke-width="0.666667"/>
<path d="M12.8581 21.1218L12.8581 21.1217L12.8532 21.12C12.7434 21.0803 12.6403 21.0334 12.5444 20.9801H17.9265C19.2259 20.9801 20.3021 20.5925 21.0537 19.8418C21.8055 19.091 22.1932 18.0164 22.1932 16.7201V13.7536C22.4067 14.1319 22.5332 14.6303 22.5332 15.2801V18.7134C22.5332 19.6766 22.2597 20.3115 21.832 20.7094C21.3999 21.1113 20.7584 21.3201 19.9265 21.3201H14.0732C13.6051 21.3201 13.1998 21.2514 12.8581 21.1218Z" fill="#51BA65" stroke="#51BA65" stroke-width="0.666667"/>
</svg>
