<svg width="32" height="32" viewBox="0 0 32 32" fill="none" xmlns="http://www.w3.org/2000/svg">
<rect x="1" y="1" width="30" height="30" rx="15" stroke="#51BA65" stroke-width="2"/>
<path d="M19.7 12.8458C19.6445 12.8402 19.5889 12.8402 19.5334 12.8458C18.6919 12.8061 18.0267 12.1125 18.0267 11.2599C18.0267 10.3833 18.7382 9.66659 19.62 9.66659C20.4963 9.66659 21.2128 10.3775 21.2134 11.2588C21.2073 12.113 20.5408 12.8061 19.7 12.8458Z" fill="#51BA65" stroke="#51BA65" stroke-width="0.666667"/>
<path d="M21.6744 17.5229L21.6743 17.5231C21.1142 17.8981 20.3453 18.0844 19.577 18.0636C19.7372 17.5926 19.821 17.0903 19.8264 16.5702L19.8264 16.5702V16.5667C19.8264 16.0216 19.735 15.494 19.5566 15.0069C20.3354 14.9831 21.1038 15.1695 21.6687 15.5444L21.6687 15.5444L21.6698 15.5451C22.1269 15.846 22.31 16.2101 22.3106 16.5315C22.3112 16.8532 22.1289 17.219 21.6744 17.5229Z" fill="#51BA65" stroke="#51BA65" stroke-width="0.666667"/>
<path d="M12.4461 12.8458C12.3906 12.8402 12.335 12.8402 12.2795 12.8458C11.438 12.8061 10.7728 12.1125 10.7728 11.2599C10.7728 10.3766 11.4843 9.66659 12.3595 9.66659C13.242 9.66659 13.9528 10.3773 13.9528 11.2599C13.9528 12.1125 13.2876 12.8061 12.4461 12.8458Z" fill="#51BA65" stroke="#51BA65" stroke-width="0.666667"/>
<path d="M10.3046 15.5444L10.3046 15.5444L10.3062 15.5434C10.833 15.1889 11.5591 15.0012 12.2977 15.005C12.1242 15.4923 12.0334 16.0185 12.0334 16.5668C12.0334 17.0927 12.1196 17.5987 12.2796 18.072C11.5516 18.0712 10.8399 17.8809 10.3039 17.5287C9.84651 17.2245 9.66341 16.8588 9.66341 16.5368C9.66341 16.2146 9.8467 15.8487 10.3046 15.5444Z" fill="#51BA65" stroke="#51BA65" stroke-width="0.666667"/>
<path d="M16.0927 18.246C16.0284 18.24 15.9623 18.2404 15.8978 18.246C14.861 18.2012 14.035 17.347 14.0345 16.2942C14.0407 15.2097 14.9132 14.3333 16.0012 14.3333C17.0834 14.3333 17.9607 15.2103 17.9612 16.2924C17.955 17.3471 17.1342 18.2006 16.0927 18.246Z" fill="#51BA65" stroke="#51BA65" stroke-width="0.666667"/>
<path d="M13.9132 19.96C12.9065 20.6333 12.9065 21.74 13.9132 22.4067C15.0599 23.1733 16.9399 23.1733 18.0865 22.4067C19.0932 21.7333 19.0932 20.6267 18.0865 19.96C16.9465 19.1933 15.0665 19.1933 13.9132 19.96Z" fill="#51BA65"/>
</svg>
