<svg width="32" height="33" viewBox="0 0 32 33" fill="none" xmlns="http://www.w3.org/2000/svg">
<g id="Group 3">
<path id="Vector" d="M15.9965 0.5C24.4633 0.5 31.3251 7.36186 31.3251 15.8286C31.3251 24.2953 24.4633 31.1571 15.9965 31.1571C7.52982 31.1571 0.667969 24.2953 0.667969 15.8286C0.667969 7.36186 7.52982 0.5 15.9965 0.5Z" fill="#51BA65" stroke="white"/>
<path id="Vector_2" d="M23.0485 10.8305L22.477 7.3105C22.0008 7.81335 21.7761 8.50669 21.8904 9.21145C22.0047 9.91621 22.4351 10.5029 23.0485 10.8305ZM23.4637 10.7619C23.9437 10.2591 24.1647 9.56574 24.0504 8.86098C23.9361 8.15621 23.5056 7.56954 22.8923 7.24193L23.4637 10.7619ZM24.8428 21.0248C26.9456 19.1962 27.8561 16.0724 27.3913 14.2972C27.0256 12.9029 25.5818 12.5562 24.4389 12.5143C23.677 12.4838 22.9799 12.1562 22.4694 11.5886C21.7037 10.7353 20.5189 9.84764 19.2123 10.4572C17.5513 11.2267 15.7227 13.9238 15.658 16.7086C15.6199 18.2934 16.1418 20.4762 18.8313 21.8895C21.6389 23.0591 23.6504 22.0648 24.8465 21.0286L24.8428 21.0248ZM28.2028 14.0838C28.8085 16.3848 27.5513 19.7829 25.3951 21.661C23.8446 23.0095 21.978 23.5086 20.0123 23.1276C19.5094 23.0286 18.9951 22.8762 18.4847 22.6591C18.4732 22.6553 18.4618 22.6476 18.4542 22.6438C17.658 22.2286 16.9875 21.7181 16.4466 21.1315C16.4389 21.1162 16.4237 21.0972 16.4008 21.0743C16.3208 20.9753 16.157 20.781 15.9589 20.4838C15.7647 20.1867 15.5361 19.7905 15.3685 19.4324C15.2009 19.0743 15.098 18.7619 15.018 18.4229C14.938 18.0876 14.8808 17.7295 14.8504 17.4362C14.8199 17.1429 14.8161 16.9143 14.8237 16.6515C14.8351 16.3848 14.8618 16.0838 14.9037 15.7791C14.9456 15.4781 15.0104 15.1734 15.098 14.8457C15.1856 14.5143 15.3037 14.1562 15.5018 13.7029C15.8675 12.8648 16.5799 11.6153 17.197 10.9486C17.3304 10.8076 17.4523 10.6857 17.597 10.5562C17.7418 10.4267 17.9132 10.2895 18.0504 10.1829C18.1875 10.0762 18.298 10.0038 18.4199 9.93145C18.5418 9.85907 18.6751 9.78669 18.8618 9.7105C19.0485 9.6305 19.2885 9.5505 19.4828 9.50097C19.6008 9.4705 19.7037 9.45145 19.7951 9.4324C20.2332 9.38669 20.6751 9.44383 21.1132 9.60383C21.0942 9.52002 21.0751 9.43621 21.0599 9.3524C20.8694 8.1905 21.3761 6.99812 22.3475 6.32383C22.4504 6.25145 22.5837 6.22859 22.7056 6.26669C23.8408 6.60193 24.6942 7.57336 24.8847 8.73526C24.9304 8.99431 24.9342 9.25716 24.9113 9.5124C24.9304 9.49335 24.9532 9.47812 24.9761 9.45907C26.138 8.58669 27.517 8.30098 28.6599 8.69336C28.8808 8.76955 28.9989 9.00954 28.9189 9.23049C28.8427 9.45145 28.6027 9.56574 28.3818 9.48955C27.517 9.1924 26.4047 9.43621 25.4789 10.1334C25.1589 10.3695 24.858 10.6553 24.5532 11.0019C24.5113 11.0438 24.477 11.0895 24.4427 11.1276C24.3132 11.28 24.1875 11.44 24.0504 11.6153C24.1875 11.6495 24.3285 11.6724 24.4732 11.6762C26.4923 11.7562 27.818 12.6134 28.2065 14.0915L28.2028 14.0838Z" fill="#443D3A"/>
<path id="Vector_3" d="M19.4296 11.3257C19.5058 11.4133 19.4982 11.5467 19.4106 11.6228C19.3801 11.6495 16.3134 14.419 16.8011 17.8171C16.8163 17.9314 16.7401 18.0381 16.622 18.0571C16.5992 18.0609 16.5725 18.0571 16.5496 18.0571C16.462 18.0419 16.3935 17.9695 16.382 17.8781C15.8639 14.259 18.9953 11.4324 19.1325 11.3143C19.2201 11.2381 19.3535 11.2457 19.4296 11.3295" fill="#443D3A"/>
<path id="Vector_4" d="M19.4103 11.6229C19.4979 11.5467 19.5056 11.4134 19.4294 11.3257C19.3532 11.2381 19.2198 11.2305 19.1322 11.3105C18.9989 11.4286 15.8636 14.2553 16.3817 17.8743C16.397 17.9657 16.4656 18.0343 16.5494 18.0534C16.5722 18.0572 16.5951 18.0572 16.6217 18.0534C16.736 18.0381 16.816 17.9315 16.8008 17.8134C16.3132 14.4191 19.3798 11.6495 19.4103 11.6191M27.3875 14.2972C27.856 16.0686 26.9417 19.1962 24.8389 21.0248C23.6427 22.0648 21.6313 23.0553 18.8236 21.8857C16.1341 20.4686 15.6122 18.2895 15.6503 16.7048C15.7189 13.92 17.5436 11.2229 19.2046 10.4534C20.5113 9.84764 21.696 10.7353 22.4618 11.5848C22.9684 12.1524 23.6694 12.4838 24.4313 12.5105C25.5779 12.5562 27.0179 12.9029 27.3837 14.2934L27.3875 14.2972Z" fill="#F7EC13"/>
<path id="Vector_5" d="M19.4296 11.3257C19.5058 11.4133 19.4982 11.5467 19.4106 11.6228C19.3801 11.6495 16.3134 14.419 16.8011 17.8171C16.8163 17.9314 16.7401 18.0381 16.622 18.0571C16.5992 18.0609 16.5725 18.0571 16.5496 18.0571C16.462 18.0419 16.3935 17.9695 16.382 17.8781C15.8639 14.259 18.9953 11.4324 19.1325 11.3143C19.2201 11.2381 19.3535 11.2457 19.4296 11.3295" fill="#443D3A"/>
<path id="Vector_6" d="M19.4103 11.6229C19.4979 11.5467 19.5056 11.4134 19.4294 11.3257C19.3532 11.2381 19.2198 11.2305 19.1322 11.3105C18.9989 11.4286 15.8636 14.2553 16.3817 17.8743C16.397 17.9657 16.4656 18.0343 16.5494 18.0534C16.5722 18.0572 16.5951 18.0572 16.6217 18.0534C16.736 18.0381 16.816 17.9315 16.8008 17.8134C16.3132 14.4191 19.3798 11.6495 19.4103 11.6191M27.3875 14.2972C27.856 16.0686 26.9417 19.1962 24.8389 21.0248C23.6427 22.0648 21.6313 23.0553 18.8236 21.8857C16.1341 20.4686 15.6122 18.2895 15.6503 16.7048C15.7189 13.92 17.5436 11.2229 19.2046 10.4534C20.5113 9.84764 21.696 10.7353 22.4618 11.5848C22.9684 12.1524 23.6694 12.4838 24.4313 12.5105C25.5779 12.5562 27.0179 12.9029 27.3837 14.2934L27.3875 14.2972Z" fill="#F7EC13"/>
<path id="Vector_7" d="M11.1247 8.1638L9.71132 5.41332C9.39513 6.14856 9.24276 6.94094 9.26562 7.74475L11.1247 8.1638ZM13.0066 11.8209L11.3761 8.65141L9.2961 8.18284C9.36848 8.83808 9.55896 9.47046 9.86753 10.0686C9.94753 10.2247 10.0351 10.3771 10.1266 10.5219C10.1875 10.6171 10.2561 10.7086 10.3209 10.7962C11.258 10.9828 12.1723 11.3295 13.0066 11.8209ZM11.4828 7.93903L12.1151 6.12951C11.5056 5.69141 10.8161 5.38284 10.0847 5.22284L11.4828 7.93903ZM14.2828 9.50856C14.1989 9.08951 14.0732 8.68951 13.898 8.30475C13.8599 8.21713 13.8218 8.14094 13.7799 8.05713C13.4523 7.41713 13.0104 6.86094 12.4656 6.39998L11.7494 8.45332L13.2808 11.4362C13.5132 10.6933 13.8485 10.0267 14.2828 9.50856ZM9.22751 10.6552L9.2199 10.64V10.6324C9.12848 10.4533 9.05229 10.2895 8.98753 10.1524C8.94181 10.0533 8.90372 9.9657 8.86943 9.88951C8.6142 9.24951 8.46943 8.57522 8.43514 7.8857C8.378 6.70855 8.65227 5.53522 9.22751 4.50665C9.31132 4.35808 9.47514 4.27427 9.64276 4.29332C10.7513 4.41903 11.8066 4.83808 12.698 5.50094C13.6428 6.20189 14.378 7.15427 14.7894 8.25522C14.8923 8.52951 15.0942 9.21522 15.0675 9.48951C14.9799 10.2857 13.9437 11.6914 13.7875 13.219C13.7685 13.2114 13.7418 13.2 13.7113 13.1809C13.5666 13.1047 13.277 12.9524 13.0485 12.8266L12.8809 12.7314C12.0123 12.1714 11.0371 11.779 10.0351 11.6C10.0275 11.6 10.0161 11.6 10.0085 11.5962C9.93991 11.5847 9.87132 11.5733 9.80275 11.5619C9.61989 11.3295 9.47513 11.0971 9.35323 10.8762C9.31132 10.8 9.27323 10.7276 9.23513 10.659L9.22751 10.6552Z" fill="#443D3A"/>
<path id="Vector_8" d="M4.92235 12.5905C6.71283 11.8591 8.0576 12.3695 8.92998 13.0248C9.10903 11.9505 9.72617 10.6476 11.5281 9.93906C12.2747 9.64573 13.0443 9.64954 13.7376 9.92382C14.4081 10.1905 14.9986 10.7048 15.4138 11.4362C15.8062 12.1295 16.0385 13.0248 16.0233 14.0876C16.0005 16.0572 15.1205 18.6514 12.7852 21.6648C12.6519 21.8629 12.4157 21.9772 12.1643 21.9391C8.36998 21.3791 5.92426 20.1067 4.5414 18.6972C3.79854 17.9391 3.34903 17.1314 3.15094 16.3581C2.94142 15.5429 3.01379 14.7657 3.31475 14.1105C3.62713 13.4324 4.1795 12.8953 4.92235 12.5905ZM9.03284 14.9714C9.03284 14.9714 7.78331 12.7962 5.39854 13.7676C4.96426 13.9467 4.64426 14.2514 4.46902 14.6362C4.28616 15.0324 4.24808 15.5162 4.38522 16.0419C4.52998 16.6057 4.87284 17.2114 5.45188 17.8019C6.62522 18.9981 8.71284 20.0838 11.9852 20.621C13.9776 17.9695 14.7319 15.741 14.7547 14.0648C14.7662 13.2419 14.5947 12.5676 14.3052 12.0572C14.0424 11.5886 13.6767 11.2648 13.2728 11.1048C12.8767 10.9486 12.4309 10.9486 11.9966 11.12C9.60426 12.0648 10.2024 14.4953 10.2024 14.5029C10.2824 14.8457 10.069 15.1848 9.72618 15.2648C9.44809 15.3295 9.1738 15.2 9.03284 14.9676V14.9714Z" fill="#443D3A"/>
<path id="Vector_9" d="M9.58476 14.6476C9.58476 14.6476 8.06096 11.9962 5.16191 13.1809C2.26667 14.3657 3.05144 19.9543 12.2591 21.3105C17.9695 13.9657 14.6743 9.38285 11.7638 10.5295C8.85335 11.68 9.58476 14.6476 9.58476 14.6476Z" fill="#EE3230"/>
<path id="Vector_10" d="M10.4337 19.9809C10.4909 19.9428 10.529 19.8781 10.529 19.8019C10.529 19.6876 10.4299 19.6 10.3195 19.6038C10.2928 19.6038 7.67182 19.6381 5.44325 17.2267C5.36706 17.1428 5.23756 17.139 5.15375 17.2152C5.06994 17.2914 5.06612 17.4209 5.14231 17.5048C7.50421 20.0571 10.2166 20.0152 10.3309 20.0114C10.369 20.0114 10.4071 20 10.4376 19.9771" fill="#F7FCFE"/>
<path id="Vector_11" d="M8.08791 21.1352C10.7203 21.1162 13.3603 21.1086 15.9965 21.1086C18.6327 21.1086 21.2689 21.1162 23.9051 21.1352C25.2193 21.1429 25.9584 22.3619 25.6841 23.7867C25.4898 24.7962 25.3489 25.8057 25.246 26.8114C25.1432 27.8133 25.067 28.8153 25.0441 29.8133C25.0174 30.9638 24.1222 31.7562 22.9641 31.6686C20.6441 31.4972 18.3203 31.4133 16.0003 31.4133C13.6803 31.4133 11.3603 31.501 9.0441 31.6724C7.8822 31.7562 6.98316 30.9638 6.95649 29.8133C6.93363 28.8153 6.85743 27.8133 6.75076 26.8114C6.64409 25.8057 6.50696 24.7924 6.31268 23.7867C6.03839 22.3581 6.77743 21.1429 8.09172 21.1314L8.08791 21.1352Z" stroke="#333333" stroke-width="1.36762" stroke-linecap="round" stroke-linejoin="round"/>
<path id="Vector_12" fill-rule="evenodd" clip-rule="evenodd" d="M8.08791 21.1352C10.7203 21.1162 13.3565 21.1086 15.9965 21.1086C18.6365 21.1086 21.2689 21.1162 23.9051 21.1352C25.2193 21.1429 25.9584 22.3619 25.6841 23.7867C25.4898 24.7962 25.3489 25.8057 25.246 26.8114C25.1432 27.8133 25.067 28.8153 25.0441 29.8133C25.0174 30.9638 24.1222 31.7562 22.9641 31.6686C20.6441 31.4972 18.3203 31.4133 16.0003 31.4133C13.6803 31.4133 11.3603 31.501 9.0441 31.6724C7.8822 31.7562 6.98316 30.9638 6.95649 29.8133C6.93363 28.8153 6.85743 27.8133 6.75076 26.8114C6.64409 25.8057 6.50696 24.7924 6.31268 23.7867C6.03839 22.3581 6.77743 21.1429 8.09172 21.1314" fill="white"/>
<path id="Vector_13" d="M3.87492 21.501C3.73778 20.8305 4.21777 20.3924 4.96825 20.4724C8.64063 20.8648 12.3206 21.1086 15.9968 21.1086C19.673 21.1086 23.353 20.8686 27.0292 20.4724C27.7797 20.3924 28.2559 20.8343 28.1187 21.501C28.0083 22.1714 27.3454 22.7962 26.6216 22.8533C23.0825 23.139 19.5359 23.3105 15.993 23.3105C12.4502 23.3105 8.9035 23.1352 5.36446 22.8533C4.64065 22.7962 3.98158 22.1714 3.87111 21.501H3.87492Z" stroke="#333333" stroke-width="1.29524" stroke-linecap="round" stroke-linejoin="round"/>
<path id="Vector_14" fill-rule="evenodd" clip-rule="evenodd" d="M3.87492 21.501C3.73778 20.8305 4.21777 20.3924 4.96825 20.4724C8.64063 20.8648 12.3206 21.1086 15.9968 21.1086C19.673 21.1086 23.353 20.8686 27.0292 20.4724C27.7797 20.3924 28.2559 20.8343 28.1187 21.501C28.0083 22.1714 27.3454 22.7962 26.6216 22.8533C23.0825 23.1352 19.5359 23.3105 15.993 23.3105C12.4502 23.3105 8.9035 23.1352 5.36446 22.8533C4.64065 22.7962 3.98158 22.1714 3.87111 21.501" fill="white"/>
<path id="Vector_15" fill-rule="evenodd" clip-rule="evenodd" d="M12.4122 25.3486C12.4083 25.0286 12.6712 24.7619 13.0026 24.7581C13.9931 24.7467 14.9836 24.7428 15.974 24.7428C16.9645 24.7428 17.955 24.7467 18.9493 24.7581C19.2807 24.7581 19.5436 25.0286 19.5398 25.3486C19.5398 25.6686 19.2655 25.9238 18.9417 25.92C17.9512 25.9048 16.9607 25.9009 15.974 25.9009C14.9874 25.9009 14.0007 25.9086 13.014 25.92C12.6864 25.9238 12.416 25.6686 12.416 25.3486H12.4122Z" fill="#333333"/>
<path id="Vector_16" d="M12.4122 25.3486C12.4083 25.0286 12.6712 24.7619 13.0026 24.7581C13.9931 24.7467 14.9836 24.7428 15.974 24.7428C16.9645 24.7428 17.955 24.7467 18.9493 24.7581C19.2807 24.7581 19.5436 25.0286 19.5398 25.3486C19.5398 25.6686 19.2655 25.9238 18.9417 25.92C17.9512 25.9048 16.9607 25.9009 15.974 25.9009C14.9874 25.9009 14.0007 25.9086 13.014 25.92C12.6864 25.9238 12.416 25.6686 12.416 25.3486H12.4122Z" stroke="black" stroke-width="0.0838095" stroke-linecap="round" stroke-linejoin="round"/>
<path id="Vector_17" fill-rule="evenodd" clip-rule="evenodd" d="M21.5314 25.3943C21.539 25.0705 21.8133 24.8114 22.1447 24.8229C22.6285 24.8381 23.1124 24.8495 23.6 24.8686C23.9276 24.88 24.1866 25.1619 24.179 25.4895C24.1714 25.821 23.9009 26.0762 23.5733 26.061C23.0895 26.0381 22.6057 26.0191 22.1219 26.0038C21.7943 25.9924 21.5238 25.7181 21.5314 25.3943Z" fill="#333333"/>
<path id="Vector_18" d="M21.5314 25.3943C21.539 25.0705 21.8133 24.8114 22.1447 24.8229C22.6285 24.8381 23.1124 24.8495 23.6 24.8686C23.9276 24.88 24.1866 25.1619 24.179 25.4895C24.1714 25.821 23.9009 26.0762 23.5733 26.061C23.0895 26.0381 22.6057 26.0191 22.1219 26.0038C21.7943 25.9924 21.5238 25.7181 21.5314 25.3943Z" stroke="black" stroke-width="0.0838095" stroke-linecap="round" stroke-linejoin="round"/>
<path id="Vector_19" fill-rule="evenodd" clip-rule="evenodd" d="M7.81045 25.4895C7.79903 25.1581 8.06189 24.8762 8.38951 24.8647C8.87332 24.8457 9.36094 24.8343 9.84475 24.819C10.1724 24.8114 10.4505 25.0705 10.4581 25.3905C10.4619 25.7143 10.1952 25.9886 9.86761 26C9.3838 26.019 8.89617 26.0381 8.41237 26.0571C8.08475 26.0724 7.81426 25.8171 7.80664 25.4857L7.81045 25.4895Z" fill="#333333"/>
<path id="Vector_20" d="M7.81045 25.4895C7.79903 25.1581 8.06189 24.8762 8.38951 24.8647C8.87332 24.8457 9.36094 24.8343 9.84475 24.819C10.1724 24.8114 10.4505 25.0705 10.4581 25.3905C10.4619 25.7143 10.1952 25.9886 9.86761 26C9.3838 26.019 8.89617 26.0381 8.41237 26.0571C8.08475 26.0724 7.81426 25.8171 7.80664 25.4857L7.81045 25.4895Z" stroke="black" stroke-width="0.0838095" stroke-linecap="round" stroke-linejoin="round"/>
<path id="Vector_21" fill-rule="evenodd" clip-rule="evenodd" d="M12.3658 29.8819C12.381 29.5619 12.6591 29.2914 12.9981 29.28C13.4896 29.2648 13.981 29.2572 14.4762 29.2533C14.8077 29.2495 15.0781 29.5086 15.0743 29.8248C15.0705 30.1448 14.7886 30.4076 14.4496 30.4114C13.9505 30.4191 13.4477 30.4267 12.9486 30.4419C12.6096 30.4533 12.3467 30.1981 12.362 29.8781L12.3658 29.8819Z" fill="#333333"/>
<path id="Vector_22" d="M12.3658 29.8819C12.381 29.5619 12.6591 29.2914 12.9981 29.28C13.4896 29.2648 13.981 29.2572 14.4762 29.2533C14.8077 29.2495 15.0781 29.5086 15.0743 29.8248C15.0705 30.1448 14.7886 30.4076 14.4496 30.4114C13.9505 30.4191 13.4477 30.4267 12.9486 30.4419C12.6096 30.4533 12.3467 30.1981 12.362 29.8781L12.3658 29.8819Z" stroke="black" stroke-width="0.0838095" stroke-linecap="round" stroke-linejoin="round"/>
<path id="Vector_23" fill-rule="evenodd" clip-rule="evenodd" d="M16.9219 29.8248C16.9219 29.5048 17.1885 29.2457 17.5238 29.2533C18.0152 29.2609 18.5066 29.2686 18.9981 29.28C19.3333 29.2876 19.6152 29.5581 19.6305 29.8819C19.6495 30.2019 19.3866 30.4533 19.0438 30.4457C18.5447 30.4305 18.0419 30.4228 17.5466 30.4152C17.2114 30.4114 16.9257 30.1486 16.9219 29.8286V29.8248Z" fill="#333333"/>
<path id="Vector_24" d="M16.9219 29.8248C16.9219 29.5048 17.1885 29.2457 17.5238 29.2533C18.0152 29.2609 18.5066 29.2686 18.9981 29.28C19.3333 29.2876 19.6152 29.5581 19.6305 29.8819C19.6495 30.2019 19.3866 30.4533 19.0438 30.4457C18.5447 30.4305 18.0419 30.4228 17.5466 30.4152C17.2114 30.4114 16.9257 30.1486 16.9219 29.8286V29.8248Z" stroke="black" stroke-width="0.0838095" stroke-linecap="round" stroke-linejoin="round"/>
<path id="Vector_25" fill-rule="evenodd" clip-rule="evenodd" d="M10.1409 27.7257C10.1447 27.4019 10.419 27.1238 10.7466 27.1124C11.2304 27.0933 11.7142 27.0781 12.198 27.0667C12.5257 27.059 12.7923 27.3143 12.7885 27.6343C12.7847 27.9543 12.5066 28.2209 12.1752 28.2324C11.6876 28.2476 11.1999 28.2667 10.7161 28.2857C10.3847 28.3009 10.1257 28.0495 10.1371 27.7219L10.1409 27.7257Z" fill="#333333"/>
<path id="Vector_26" d="M10.1409 27.7257C10.1447 27.4019 10.419 27.1238 10.7466 27.1124C11.2304 27.0933 11.7142 27.0781 12.198 27.0667C12.5257 27.059 12.7923 27.3143 12.7885 27.6343C12.7847 27.9543 12.5066 28.2209 12.1752 28.2324C11.6876 28.2476 11.1999 28.2667 10.7161 28.2857C10.3847 28.3009 10.1257 28.0495 10.1371 27.7219L10.1409 27.7257Z" stroke="black" stroke-width="0.0838095" stroke-linecap="round" stroke-linejoin="round"/>
<path id="Vector_27" fill-rule="evenodd" clip-rule="evenodd" d="M14.6523 27.6038C14.6523 27.2838 14.9266 27.021 15.2504 27.021C15.7342 27.021 16.218 27.021 16.7018 27.021C17.0294 27.021 17.2999 27.2876 17.2999 27.6038C17.2999 27.9238 17.0332 28.1791 16.7018 28.1791C16.2142 28.1791 15.7266 28.1791 15.2428 28.1791C14.9113 28.1791 14.6447 27.9238 14.6485 27.6038H14.6523Z" fill="#333333"/>
<path id="Vector_28" d="M14.6523 27.6038C14.6523 27.2838 14.9266 27.021 15.2504 27.021C15.7342 27.021 16.218 27.021 16.7018 27.021C17.0294 27.021 17.2999 27.2876 17.2999 27.6038C17.2999 27.9238 17.0332 28.1791 16.7018 28.1791C16.2142 28.1791 15.7266 28.1791 15.2428 28.1791C14.9113 28.1791 14.6447 27.9238 14.6485 27.6038H14.6523Z" stroke="black" stroke-width="0.0838095" stroke-linecap="round" stroke-linejoin="round"/>
<path id="Vector_29" fill-rule="evenodd" clip-rule="evenodd" d="M19.1661 27.6343C19.1622 27.3143 19.4251 27.0553 19.7565 27.0667C20.2403 27.0781 20.7241 27.0933 21.208 27.1124C21.5356 27.1238 21.8099 27.4019 21.8137 27.7257C21.8251 28.0495 21.5622 28.301 21.2346 28.2895C20.747 28.2705 20.2594 28.2476 19.7756 28.2362C19.4441 28.2286 19.1699 27.9581 19.1661 27.6381V27.6343Z" fill="#333333"/>
<path id="Vector_30" d="M19.1661 27.6343C19.1622 27.3143 19.4251 27.0553 19.7565 27.0667C20.2403 27.0781 20.7241 27.0933 21.208 27.1124C21.5356 27.1238 21.8099 27.4019 21.8137 27.7257C21.8251 28.0495 21.5622 28.301 21.2346 28.2895C20.747 28.2705 20.2594 28.2476 19.7756 28.2362C19.4441 28.2286 19.1699 27.9581 19.1661 27.6381V27.6343Z" stroke="black" stroke-width="0.0838095" stroke-linecap="round" stroke-linejoin="round"/>
<path id="Vector_31" d="M16.0007 6.92574C16.7474 6.92574 17.3569 7.53526 17.3569 8.28574V24.7048C17.3569 25.4515 16.7474 26.0648 16.0007 26.0648C15.2541 26.0648 14.6445 25.4553 14.6445 24.7048V8.28574C14.6445 7.53907 15.2541 6.92574 16.0007 6.92574Z" stroke="#333333" stroke-width="1.02857" stroke-linecap="round" stroke-linejoin="round"/>
<path id="Vector_32" fill-rule="evenodd" clip-rule="evenodd" d="M16.0007 6.92574C16.7474 6.92574 17.3607 7.53526 17.3607 8.28574V24.7048C17.3607 25.4515 16.7512 26.0648 16.0007 26.0648C15.2502 26.0648 14.6445 25.4553 14.6445 24.7048V8.28574C14.6445 7.53907 15.2541 6.92574 16.0007 6.92574Z" fill="white"/>
</g>
</svg>
