<svg width="32" height="32" viewBox="0 0 32 32" fill="none" xmlns="http://www.w3.org/2000/svg">
<rect x="1" y="1" width="30" height="30" rx="15" stroke="#51BA65" stroke-width="2"/>
<g clip-path="url(#clip0_2738_14528)">
<path d="M12.2538 19.742C12.3492 20.269 12.457 20.7956 12.587 21.3177C11.8235 20.828 11.172 20.1744 10.6797 19.409C11.2017 19.54 11.7292 19.6493 12.2538 19.742Z" fill="#51BA65" stroke="#51BA65" stroke-width="0.666667"/>
<path d="M19.755 19.742C20.2827 19.649 20.8064 19.5395 21.3258 19.4084C20.8317 20.1775 20.1719 20.8335 19.3992 21.3298C19.5388 20.8046 19.6601 20.2752 19.755 19.742Z" fill="#51BA65" stroke="#51BA65" stroke-width="0.666667"/>
<path d="M19.7554 12.2459C19.6618 11.7166 19.5439 11.1907 19.4048 10.6712C20.1788 11.1674 20.8366 11.8259 21.332 12.6005C20.8109 12.4624 20.2859 12.3432 19.7554 12.2459Z" fill="#51BA65" stroke="#51BA65" stroke-width="0.666667"/>
<path d="M12.2578 12.2494C11.7242 12.341 11.1946 12.4612 10.6697 12.6004C11.1651 11.8291 11.8196 11.1703 12.5869 10.6764C12.457 11.1972 12.3501 11.7217 12.2578 12.2494Z" fill="#51BA65" stroke="#51BA65" stroke-width="0.666667"/>
<path d="M17.9157 12.0165C16.6413 11.901 15.3596 11.901 14.0852 12.0165C14.235 11.2689 14.42 10.5293 14.6623 9.81479C15.099 9.72207 15.5418 9.66659 16.0005 9.66659C16.4555 9.66659 16.9042 9.72258 17.339 9.81583C17.5812 10.5356 17.7661 11.2712 17.9157 12.0165Z" fill="#51BA65" stroke="#51BA65" stroke-width="0.666667"/>
<path d="M12.394 18.3267C11.474 18.16 10.5673 17.9467 9.68732 17.6467C9.63398 17.6333 9.59398 17.64 9.54065 17.6333C9.41398 17.1067 9.33398 16.5667 9.33398 16C9.33398 15.44 9.41398 14.8933 9.54065 14.3733C9.59398 14.3667 9.63398 14.3667 9.68732 14.3533C10.574 14.06 11.474 13.84 12.394 13.6733C12.2273 15.22 12.2273 16.78 12.394 18.3267Z" fill="#51BA65"/>
<path d="M22.6674 16C22.6674 16.5667 22.5874 17.1067 22.4608 17.6333C22.4074 17.64 22.3674 17.6333 22.3141 17.6467C21.4274 17.94 20.5208 18.16 19.6074 18.3267C19.7808 16.78 19.7808 15.22 19.6074 13.6733C20.5208 13.84 21.4341 14.0533 22.3141 14.3533C22.3674 14.3667 22.4074 14.3733 22.4608 14.3733C22.5874 14.9 22.6674 15.44 22.6674 16Z" fill="#51BA65"/>
<path d="M18.3272 19.6067C18.1605 20.5267 17.9472 21.4334 17.6472 22.3134C17.6338 22.3667 17.6338 22.4067 17.6272 22.46C17.1072 22.5867 16.5605 22.6667 16.0005 22.6667C15.4338 22.6667 14.8938 22.5867 14.3672 22.46C14.3605 22.4067 14.3672 22.3667 14.3538 22.3134C14.0605 21.4267 13.8405 20.5267 13.6738 19.6067C14.4472 19.6934 15.2205 19.7534 16.0005 19.7534C16.7805 19.7534 17.5605 19.6934 18.3272 19.6067Z" fill="#51BA65"/>
<path d="M18.5095 18.5088C16.8421 18.7192 15.1592 18.7192 13.4918 18.5088C13.2814 16.8414 13.2814 15.1584 13.4918 13.491C15.1592 13.2807 16.8421 13.2807 18.5095 13.491C18.7199 15.1584 18.7199 16.8414 18.5095 18.5088Z" fill="#51BA65"/>
</g>
<defs>
<clipPath id="clip0_2738_14528">
<rect width="16" height="16" fill="white" transform="translate(8 8)"/>
</clipPath>
</defs>
</svg>
