<svg width="144" height="152" viewBox="0 0 144 152" fill="none" xmlns="http://www.w3.org/2000/svg">
<path fill-rule="evenodd" clip-rule="evenodd" d="M71.9894 0C94.9394 0 113.539 18.6 113.539 41.55C113.539 64.5 94.9394 83.1 71.9894 83.1C49.0394 83.1 30.4395 64.5 30.4395 41.55C30.4395 18.6 49.0394 0 71.9894 0Z" fill="#51BA65"/>
<path d="M90.4993 28.4302L88.9993 19.1902C87.7493 20.5102 87.1593 22.3302 87.4593 24.1802C87.7593 26.0302 88.8893 27.5702 90.4993 28.4302ZM91.5893 28.2502C92.8493 26.9302 93.4293 25.1102 93.1293 23.2602C92.8293 21.4102 91.6993 19.8702 90.0893 19.0102L91.5893 28.2502ZM95.2093 55.1902C100.729 50.3902 103.119 42.1902 101.899 37.5302C100.939 33.8702 97.1493 32.9602 94.1493 32.8502C92.1493 32.7702 90.3193 31.9102 88.9793 30.4202C86.9693 28.1802 83.8593 25.8502 80.4293 27.4502C76.0693 29.4702 71.2693 36.5502 71.0993 43.8602C70.9993 48.0202 72.3693 53.7502 79.4293 57.4602C86.7993 60.5302 92.0793 57.9202 95.2193 55.2002L95.2093 55.1902ZM104.029 36.9702C105.619 43.0102 102.319 51.9302 96.6593 56.8602C92.5893 60.4002 87.6893 61.7102 82.5293 60.7102C81.2093 60.4502 79.8593 60.0502 78.5193 59.4802C78.4893 59.4702 78.4593 59.4502 78.4393 59.4402C76.3493 58.3502 74.5893 57.0102 73.1693 55.4702C73.1493 55.4302 73.1093 55.3802 73.0493 55.3202C72.8393 55.0602 72.4093 54.5502 71.8893 53.7702C71.3793 52.9902 70.7793 51.9502 70.3393 51.0102C69.8993 50.0702 69.6293 49.2502 69.4193 48.3602C69.2093 47.4802 69.0593 46.5402 68.9793 45.7702C68.8993 45.0002 68.8893 44.4002 68.9093 43.7102C68.9393 43.0102 69.0093 42.2202 69.1193 41.4202C69.2293 40.6302 69.3993 39.8302 69.6293 38.9702C69.8593 38.1002 70.1693 37.1602 70.6893 35.9702C71.6493 33.7702 73.5193 30.4902 75.1393 28.7402C75.4893 28.3702 75.8093 28.0502 76.1893 27.7102C76.5693 27.3702 77.0193 27.0102 77.3793 26.7302C77.7393 26.4502 78.0293 26.2602 78.3493 26.0702C78.6693 25.8802 79.0193 25.6902 79.5093 25.4902C79.9993 25.2802 80.6293 25.0702 81.1393 24.9402C81.4493 24.8602 81.7193 24.8102 81.9593 24.7602C83.1093 24.6402 84.2693 24.7902 85.4193 25.2102C85.3693 24.9902 85.3193 24.7702 85.2793 24.5502C84.7793 21.5002 86.1093 18.3702 88.6593 16.6002C88.9293 16.4102 89.2793 16.3502 89.5993 16.4502C92.5793 17.3302 94.8193 19.8802 95.3193 22.9302C95.4393 23.6102 95.4493 24.3002 95.3893 24.9702C95.4393 24.9202 95.4993 24.8802 95.5593 24.8302C98.6093 22.5402 102.229 21.7902 105.229 22.8202C105.809 23.0202 106.119 23.6502 105.909 24.2302C105.709 24.8102 105.079 25.1102 104.499 24.9102C102.229 24.1302 99.3093 24.7702 96.8793 26.6002C96.0393 27.2202 95.2493 27.9702 94.4493 28.8802C94.3393 28.9902 94.2493 29.1102 94.1593 29.2102C93.8193 29.6102 93.4893 30.0302 93.1293 30.4902C93.4893 30.5802 93.8593 30.6402 94.2393 30.6502C99.5393 30.8602 103.019 33.1102 104.039 36.9902L104.029 36.9702Z" fill="#443D3A"/>
<path d="M80.9994 29.7298C81.1994 29.9598 81.1794 30.3098 80.9494 30.5098C80.8694 30.5798 72.8194 37.8498 74.0994 46.7698C74.1394 47.0698 73.9394 47.3498 73.6294 47.3998C73.5694 47.4098 73.4994 47.3998 73.4394 47.3998C73.2094 47.3598 73.0294 47.1698 72.9994 46.9298C71.6394 37.4298 79.8594 30.0098 80.2194 29.6998C80.4494 29.4998 80.7994 29.5198 80.9994 29.7398" fill="#443D3A"/>
<path d="M80.9492 30.5099C81.1792 30.3099 81.1991 29.9599 80.9991 29.7299C80.7991 29.4999 80.4491 29.4799 80.2191 29.6899C79.8691 29.9999 71.6391 37.4199 72.9991 46.9199C73.0391 47.1599 73.2192 47.3399 73.4392 47.3899C73.4992 47.3999 73.5592 47.3999 73.6292 47.3899C73.9292 47.3499 74.1391 47.0699 74.0991 46.7599C72.8191 37.8499 80.8692 30.5799 80.9492 30.4999M101.889 37.5299C103.119 42.1799 100.719 50.3899 95.1992 55.1899C92.0592 57.9199 86.7791 60.5199 79.4091 57.4499C72.3491 53.7299 70.9792 48.0099 71.0792 43.8499C71.2592 36.5399 76.0491 29.4599 80.4091 27.4399C83.8391 25.8499 86.9492 28.1799 88.9592 30.4099C90.2892 31.8999 92.1292 32.7699 94.1292 32.8399C97.1392 32.9599 100.919 33.8699 101.879 37.5199L101.889 37.5299Z" fill="#F7EC13"/>
<path d="M80.9994 29.7298C81.1994 29.9598 81.1794 30.3098 80.9494 30.5098C80.8694 30.5798 72.8194 37.8498 74.0994 46.7698C74.1394 47.0698 73.9394 47.3498 73.6294 47.3998C73.5694 47.4098 73.4994 47.3998 73.4394 47.3998C73.2094 47.3598 73.0294 47.1698 72.9994 46.9298C71.6394 37.4298 79.8594 30.0098 80.2194 29.6998C80.4494 29.4998 80.7994 29.5198 80.9994 29.7398" fill="#443D3A"/>
<path d="M80.9492 30.5099C81.1792 30.3099 81.1991 29.9599 80.9991 29.7299C80.7991 29.4999 80.4491 29.4799 80.2191 29.6899C79.8691 29.9999 71.6391 37.4199 72.9991 46.9199C73.0391 47.1599 73.2192 47.3399 73.4392 47.3899C73.4992 47.3999 73.5592 47.3999 73.6292 47.3899C73.9292 47.3499 74.1391 47.0699 74.0991 46.7599C72.8191 37.8499 80.8692 30.5799 80.9492 30.4999M101.889 37.5299C103.119 42.1799 100.719 50.3899 95.1992 55.1899C92.0592 57.9199 86.7791 60.5199 79.4091 57.4499C72.3491 53.7299 70.9792 48.0099 71.0792 43.8499C71.2592 36.5399 76.0491 29.4599 80.4091 27.4399C83.8391 25.8499 86.9492 28.1799 88.9592 30.4099C90.2892 31.8999 92.1292 32.7699 94.1292 32.8399C97.1392 32.9599 100.919 33.8699 101.879 37.5199L101.889 37.5299Z" fill="#F7EC13"/>
<path d="M59.2005 21.43L55.4905 14.21C54.6605 16.14 54.2605 18.22 54.3205 20.33L59.2005 21.43ZM64.1405 31.03L59.8605 22.71L54.4006 21.48C54.5906 23.2 55.0906 24.86 55.9006 26.43C56.1106 26.84 56.3405 27.24 56.5805 27.62C56.7405 27.87 56.9206 28.11 57.0906 28.34C59.5506 28.83 61.9505 29.74 64.1405 31.03ZM60.1405 20.84L61.8005 16.09C60.2005 14.94 58.3905 14.13 56.4705 13.71L60.1405 20.84ZM67.4905 24.96C67.2705 23.86 66.9405 22.81 66.4805 21.8C66.3805 21.57 66.2805 21.37 66.1705 21.15C65.3105 19.47 64.1505 18.01 62.7205 16.8L60.8406 22.19L64.8605 30.02C65.4705 28.07 66.3505 26.32 67.4905 24.96ZM54.2205 27.97L54.2005 27.93V27.91C53.9605 27.44 53.7606 27.01 53.5906 26.65C53.4706 26.39 53.3706 26.16 53.2806 25.96C52.6106 24.28 52.2305 22.51 52.1405 20.7C51.9905 17.61 52.7105 14.53 54.2205 11.83C54.4405 11.44 54.8705 11.22 55.3105 11.27C58.2205 11.6 60.9905 12.7 63.3305 14.44C65.8105 16.28 67.7405 18.78 68.8205 21.67C69.0905 22.39 69.6205 24.19 69.5505 24.91C69.3205 27 66.6005 30.69 66.1905 34.7C66.1405 34.68 66.0705 34.65 65.9905 34.6C65.6105 34.4 64.8505 34 64.2505 33.67L63.8105 33.42C61.5305 31.95 58.9706 30.92 56.3406 30.45C56.3206 30.45 56.2905 30.45 56.2705 30.44C56.0905 30.41 55.9105 30.38 55.7305 30.35C55.2505 29.74 54.8705 29.13 54.5505 28.55C54.4405 28.35 54.3405 28.16 54.2405 27.98L54.2205 27.97Z" fill="#443D3A"/>
<path d="M42.9192 33.05C47.6192 31.13 51.1492 32.47 53.4392 34.19C53.9092 31.37 55.5293 27.95 60.2593 26.09C62.2193 25.32 64.2392 25.33 66.0592 26.05C67.8192 26.75 69.3693 28.1 70.4593 30.02C71.4893 31.84 72.0992 34.19 72.0592 36.98C71.9992 42.15 69.6892 48.96 63.5592 56.87C63.2092 57.39 62.5892 57.69 61.9292 57.59C51.9692 56.12 45.5492 52.78 41.9192 49.08C39.9692 47.09 38.7893 44.97 38.2693 42.94C37.7193 40.8 37.9093 38.76 38.6993 37.04C39.5193 35.26 40.9692 33.85 42.9192 33.05ZM53.7093 39.3C53.7093 39.3 50.4292 33.59 44.1692 36.14C43.0292 36.61 42.1892 37.41 41.7292 38.42C41.2492 39.46 41.1493 40.73 41.5093 42.11C41.8893 43.59 42.7892 45.18 44.3092 46.73C47.3892 49.87 52.8693 52.72 61.4593 54.13C66.6893 47.17 68.6692 41.32 68.7292 36.92C68.7592 34.76 68.3092 32.99 67.5492 31.65C66.8592 30.42 65.8993 29.57 64.8393 29.15C63.7993 28.74 62.6292 28.74 61.4892 29.19C55.2092 31.67 56.7793 38.05 56.7793 38.07C56.9893 38.97 56.4293 39.86 55.5293 40.07C54.7993 40.24 54.0793 39.9 53.7093 39.29V39.3Z" fill="#443D3A"/>
<path d="M55.1605 38.4501C55.1605 38.4501 51.1605 31.4901 43.5505 34.6001C35.9505 37.7101 38.0105 52.3801 62.1805 55.9401C77.1705 36.6601 68.5205 24.6301 60.8805 27.6401C53.2405 30.6601 55.1605 38.4501 55.1605 38.4501Z" fill="#EE3230"/>
<path d="M57.3883 52.45C57.5383 52.35 57.6383 52.18 57.6383 51.98C57.6383 51.68 57.3783 51.45 57.0883 51.46C57.0183 51.46 50.1383 51.55 44.2883 45.22C44.0883 45 43.7483 44.99 43.5283 45.19C43.3083 45.39 43.2983 45.73 43.4983 45.95C49.6983 52.65 56.8183 52.54 57.1183 52.53C57.2183 52.53 57.3183 52.5 57.3983 52.44" fill="#F7FCFE"/>
<path d="M51.229 55.4801C58.139 55.4301 65.0691 55.4102 71.9891 55.4102C78.9091 55.4102 85.8291 55.4301 92.7491 55.4801C96.1991 55.5001 98.139 58.7002 97.419 62.4402C96.909 65.0902 96.5391 67.7402 96.2691 70.3802C95.9991 73.0102 95.7991 75.6402 95.7391 78.2602C95.6691 81.2802 93.3191 83.3602 90.2791 83.1302C84.1891 82.6802 78.0891 82.4602 71.9991 82.4602C65.9091 82.4602 59.8191 82.6902 53.7391 83.1402C50.6891 83.3602 48.3291 81.2802 48.2591 78.2602C48.1991 75.6402 47.999 73.0102 47.719 70.3802C47.439 67.7402 47.0791 65.0802 46.5691 62.4402C45.8491 58.6902 47.7891 55.5002 51.2391 55.4702L51.229 55.4801Z" stroke="#333333" stroke-width="3.59" stroke-linecap="round" stroke-linejoin="round"/>
<path fill-rule="evenodd" clip-rule="evenodd" d="M51.229 55.4801C58.139 55.4301 65.0591 55.4102 71.9891 55.4102C78.9191 55.4102 85.8291 55.4301 92.7491 55.4801C96.1991 55.5001 98.139 58.7002 97.419 62.4402C96.909 65.0902 96.5391 67.7402 96.2691 70.3802C95.9991 73.0102 95.7991 75.6402 95.7391 78.2602C95.6691 81.2802 93.3191 83.3602 90.2791 83.1302C84.1891 82.6802 78.0891 82.4602 71.9991 82.4602C65.9091 82.4602 59.8191 82.6902 53.7391 83.1402C50.6891 83.3602 48.3291 81.2802 48.2591 78.2602C48.1991 75.6402 47.999 73.0102 47.719 70.3802C47.439 67.7402 47.0791 65.0802 46.5691 62.4402C45.8491 58.6902 47.7891 55.5002 51.2391 55.4702" fill="white"/>
<path d="M40.1687 56.44C39.8087 54.68 41.0687 53.53 43.0387 53.74C52.6787 54.77 62.3387 55.41 71.9887 55.41C81.6387 55.41 91.2988 54.78 100.949 53.74C102.919 53.53 104.169 54.69 103.809 56.44C103.519 58.2 101.779 59.84 99.8788 59.99C90.5888 60.74 81.2787 61.19 71.9787 61.19C62.6787 61.19 53.3688 60.73 44.0788 59.99C42.1788 59.84 40.4487 58.2 40.1587 56.44H40.1687Z" stroke="#333333" stroke-width="3.4" stroke-linecap="round" stroke-linejoin="round"/>
<path fill-rule="evenodd" clip-rule="evenodd" d="M40.1687 56.44C39.8087 54.68 41.0687 53.53 43.0387 53.74C52.6787 54.77 62.3387 55.41 71.9887 55.41C81.6387 55.41 91.2988 54.78 100.949 53.74C102.919 53.53 104.169 54.69 103.809 56.44C103.519 58.2 101.779 59.84 99.8788 59.99C90.5888 60.73 81.2787 61.19 71.9787 61.19C62.6787 61.19 53.3688 60.73 44.0788 59.99C42.1788 59.84 40.4487 58.2 40.1587 56.44" fill="white"/>
<path fill-rule="evenodd" clip-rule="evenodd" d="M62.5782 66.54C62.5682 65.7 63.2582 65 64.1282 64.99C66.7282 64.96 69.3282 64.95 71.9282 64.95C74.5282 64.95 77.1282 64.96 79.7382 64.99C80.6082 64.99 81.2982 65.7 81.2882 66.54C81.2882 67.38 80.5682 68.05 79.7182 68.04C77.1182 68 74.5182 67.99 71.9282 67.99C69.3382 67.99 66.7482 68.01 64.1582 68.04C63.2982 68.05 62.5882 67.38 62.5882 66.54H62.5782Z" fill="#333333"/>
<path d="M62.5782 66.54C62.5682 65.7 63.2582 65 64.1282 64.99C66.7282 64.96 69.3282 64.95 71.9282 64.95C74.5282 64.95 77.1282 64.96 79.7382 64.99C80.6082 64.99 81.2982 65.7 81.2882 66.54C81.2882 67.38 80.5682 68.05 79.7182 68.04C77.1182 68 74.5182 67.99 71.9282 67.99C69.3382 67.99 66.7482 68.01 64.1582 68.04C63.2982 68.05 62.5882 67.38 62.5882 66.54H62.5782Z" stroke="black" stroke-width="0.22" stroke-linecap="round" stroke-linejoin="round"/>
<path fill-rule="evenodd" clip-rule="evenodd" d="M86.5199 66.6601C86.5399 65.8101 87.2599 65.1301 88.1299 65.1601C89.3999 65.2001 90.6699 65.2301 91.9499 65.2801C92.8099 65.3101 93.4899 66.0501 93.4699 66.9101C93.4499 67.7801 92.7399 68.4501 91.8799 68.4101C90.6099 68.3501 89.3399 68.3001 88.0699 68.2601C87.2099 68.2301 86.4999 67.5101 86.5199 66.6601Z" fill="#333333"/>
<path d="M86.5199 66.6601C86.5399 65.8101 87.2599 65.1301 88.1299 65.1601C89.3999 65.2001 90.6699 65.2301 91.9499 65.2801C92.8099 65.3101 93.4899 66.0501 93.4699 66.9101C93.4499 67.7801 92.7399 68.4501 91.8799 68.4101C90.6099 68.3501 89.3399 68.3001 88.0699 68.2601C87.2099 68.2301 86.4999 67.5101 86.5199 66.6601Z" stroke="black" stroke-width="0.22" stroke-linecap="round" stroke-linejoin="round"/>
<path fill-rule="evenodd" clip-rule="evenodd" d="M50.4983 66.9098C50.4683 66.0398 51.1583 65.2998 52.0183 65.2698C53.2883 65.2198 54.5683 65.1898 55.8383 65.1498C56.6983 65.1298 57.4283 65.8098 57.4483 66.6498C57.4583 67.4998 56.7583 68.2198 55.8983 68.2498C54.6283 68.2998 53.3483 68.3498 52.0783 68.3998C51.2183 68.4398 50.5083 67.7698 50.4883 66.8998L50.4983 66.9098Z" fill="#333333"/>
<path d="M50.4983 66.9098C50.4683 66.0398 51.1583 65.2998 52.0183 65.2698C53.2883 65.2198 54.5683 65.1898 55.8383 65.1498C56.6983 65.1298 57.4283 65.8098 57.4483 66.6498C57.4583 67.4998 56.7583 68.2198 55.8983 68.2498C54.6283 68.2998 53.3483 68.3498 52.0783 68.3998C51.2183 68.4398 50.5083 67.7698 50.4883 66.8998L50.4983 66.9098Z" stroke="black" stroke-width="0.22" stroke-linecap="round" stroke-linejoin="round"/>
<path fill-rule="evenodd" clip-rule="evenodd" d="M62.4589 78.4401C62.4989 77.6001 63.2289 76.8901 64.1189 76.8601C65.4089 76.8201 66.6989 76.8001 67.9989 76.7901C68.8689 76.7801 69.5789 77.4601 69.5689 78.2901C69.5589 79.1301 68.8189 79.8201 67.9289 79.8301C66.6189 79.8501 65.2989 79.8701 63.9889 79.9101C63.0989 79.9401 62.4089 79.2701 62.4489 78.4301L62.4589 78.4401Z" fill="#333333"/>
<path d="M62.4589 78.4401C62.4989 77.6001 63.2289 76.8901 64.1189 76.8601C65.4089 76.8201 66.6989 76.8001 67.9989 76.7901C68.8689 76.7801 69.5789 77.4601 69.5689 78.2901C69.5589 79.1301 68.8189 79.8201 67.9289 79.8301C66.6189 79.8501 65.2989 79.8701 63.9889 79.9101C63.0989 79.9401 62.4089 79.2701 62.4489 78.4301L62.4589 78.4401Z" stroke="black" stroke-width="0.22" stroke-linecap="round" stroke-linejoin="round"/>
<path fill-rule="evenodd" clip-rule="evenodd" d="M74.4199 78.29C74.4199 77.45 75.1199 76.77 75.9999 76.79C77.2899 76.81 78.5799 76.83 79.8699 76.86C80.7499 76.88 81.49 77.59 81.53 78.44C81.58 79.28 80.8899 79.94 79.9899 79.92C78.6799 79.88 77.3599 79.86 76.0599 79.84C75.1799 79.83 74.4299 79.14 74.4199 78.3V78.29Z" fill="#333333"/>
<path d="M74.4199 78.29C74.4199 77.45 75.1199 76.77 75.9999 76.79C77.2899 76.81 78.5799 76.83 79.8699 76.86C80.7499 76.88 81.49 77.59 81.53 78.44C81.58 79.28 80.8899 79.94 79.9899 79.92C78.6799 79.88 77.3599 79.86 76.0599 79.84C75.1799 79.83 74.4299 79.14 74.4199 78.3V78.29Z" stroke="black" stroke-width="0.22" stroke-linecap="round" stroke-linejoin="round"/>
<path fill-rule="evenodd" clip-rule="evenodd" d="M56.6203 72.78C56.6303 71.93 57.3504 71.2 58.2104 71.17C59.4804 71.12 60.7504 71.08 62.0204 71.05C62.8804 71.03 63.5804 71.7 63.5704 72.54C63.5604 73.38 62.8304 74.08 61.9604 74.11C60.6804 74.15 59.4004 74.2 58.1304 74.25C57.2604 74.29 56.5803 73.63 56.6103 72.77L56.6203 72.78Z" fill="#333333"/>
<path d="M56.6203 72.78C56.6303 71.93 57.3504 71.2 58.2104 71.17C59.4804 71.12 60.7504 71.08 62.0204 71.05C62.8804 71.03 63.5804 71.7 63.5704 72.54C63.5604 73.38 62.8304 74.08 61.9604 74.11C60.6804 74.15 59.4004 74.2 58.1304 74.25C57.2604 74.29 56.5803 73.63 56.6103 72.77L56.6203 72.78Z" stroke="black" stroke-width="0.22" stroke-linecap="round" stroke-linejoin="round"/>
<path fill-rule="evenodd" clip-rule="evenodd" d="M68.4593 72.4602C68.4593 71.6202 69.1793 70.9302 70.0293 70.9302C71.2993 70.9302 72.5693 70.9302 73.8393 70.9302C74.6993 70.9302 75.4093 71.6302 75.4093 72.4602C75.4093 73.3002 74.7093 73.9702 73.8393 73.9702C72.5593 73.9702 71.2793 73.9702 70.0093 73.9702C69.1393 73.9702 68.4393 73.3002 68.4493 72.4602H68.4593Z" fill="#333333"/>
<path d="M68.4593 72.4602C68.4593 71.6202 69.1793 70.9302 70.0293 70.9302C71.2993 70.9302 72.5693 70.9302 73.8393 70.9302C74.6993 70.9302 75.4093 71.6302 75.4093 72.4602C75.4093 73.3002 74.7093 73.9702 73.8393 73.9702C72.5593 73.9702 71.2793 73.9702 70.0093 73.9702C69.1393 73.9702 68.4393 73.3002 68.4493 72.4602H68.4593Z" stroke="black" stroke-width="0.22" stroke-linecap="round" stroke-linejoin="round"/>
<path fill-rule="evenodd" clip-rule="evenodd" d="M80.3087 72.54C80.2987 71.7 80.9887 71.02 81.8587 71.05C83.1287 71.08 84.3987 71.12 85.6687 71.17C86.5287 71.2 87.2487 71.93 87.2587 72.78C87.2887 73.63 86.5987 74.29 85.7387 74.26C84.4587 74.21 83.1787 74.15 81.9087 74.12C81.0387 74.1 80.3187 73.39 80.3087 72.55V72.54Z" fill="#333333"/>
<path d="M80.3087 72.54C80.2987 71.7 80.9887 71.02 81.8587 71.05C83.1287 71.08 84.3987 71.12 85.6687 71.17C86.5287 71.2 87.2487 71.93 87.2587 72.78C87.2887 73.63 86.5987 74.29 85.7387 74.26C84.4587 74.21 83.1787 74.15 81.9087 74.12C81.0387 74.1 80.3187 73.39 80.3087 72.55V72.54Z" stroke="black" stroke-width="0.22" stroke-linecap="round" stroke-linejoin="round"/>
<path d="M71.9995 18.1802C73.9595 18.1802 75.5594 19.7802 75.5594 21.7502V64.8502C75.5594 66.8102 73.9595 68.4202 71.9995 68.4202C70.0395 68.4202 68.4395 66.8202 68.4395 64.8502V21.7502C68.4395 19.7902 70.0395 18.1802 71.9995 18.1802Z" stroke="#333333" stroke-width="2.7" stroke-linecap="round" stroke-linejoin="round"/>
<path fill-rule="evenodd" clip-rule="evenodd" d="M71.9995 18.1802C73.9595 18.1802 75.5695 19.7802 75.5695 21.7502V64.8502C75.5695 66.8102 73.9695 68.4202 71.9995 68.4202C70.0295 68.4202 68.4395 66.8202 68.4395 64.8502V21.7502C68.4395 19.7902 70.0395 18.1802 71.9995 18.1802Z" fill="white"/>
<path d="M18.6211 98.457C18.6211 98.207 18.5742 99.2344 18.4805 101.539C18.3867 103.836 18.3398 106.258 18.3398 108.805C18.3398 110.719 18.3516 112.52 18.375 114.207C18.3984 115.895 18.4102 116.629 18.4102 116.41C18.4102 117.574 17.9922 118.156 17.1562 118.156C16.6797 118.156 16.3516 117.992 16.1719 117.664C16.0469 117.438 15.9688 117.051 15.9375 116.504C15.9062 115.965 15.8906 115.062 15.8906 113.797V108.605C14.9453 108.621 13.6406 108.629 11.9766 108.629C8.89844 108.629 6.50781 108.59 4.80469 108.512C4.71875 110.355 4.67578 112.109 4.67578 113.773C4.67578 114.273 4.67969 114.812 4.6875 115.391C4.69531 115.961 4.69922 116.277 4.69922 116.34C4.69922 117.137 4.61328 117.695 4.44141 118.016C4.25391 118.367 3.91797 118.543 3.43359 118.543C2.96484 118.543 2.63672 118.375 2.44922 118.039C2.26953 117.727 2.17969 117.199 2.17969 116.457C2.17969 114.934 2.23047 112.215 2.33203 108.301C1.80078 108.043 1.53516 107.715 1.53516 107.316C1.53516 106.77 1.82422 106.426 2.40234 106.285C2.52734 104.098 2.70312 101.609 2.92969 98.8203C3.08594 97.8281 3.55078 97.332 4.32422 97.332C5.08984 97.332 5.47266 97.8008 5.47266 98.7383C5.47266 98.8164 5.41406 99.5586 5.29688 100.965C5.14844 102.715 5.02344 104.48 4.92188 106.262C5.79688 106.293 7.17188 106.309 9.04688 106.309C11.4297 106.309 13.7188 106.242 15.9141 106.109C15.9766 102.016 16.0469 99.4961 16.125 98.5508C16.2188 97.4336 16.6523 96.875 17.4258 96.875C18.2227 96.875 18.6211 97.4023 18.6211 98.457ZM34.6875 107.48C34.6875 109.777 34.0156 111.609 32.6719 112.977C31.3281 114.336 29.5352 115.016 27.293 115.016C25.4336 115.016 23.9766 114.383 22.9219 113.117C21.8672 111.844 21.3398 110.078 21.3398 107.82C21.3398 105.445 21.9766 103.602 23.25 102.289C24.5 101 26.2344 100.355 28.4531 100.355C30.3125 100.355 31.8164 101.008 32.9648 102.312C34.1133 103.617 34.6875 105.34 34.6875 107.48ZM32.3555 107.504C32.3555 105.934 31.9727 104.707 31.207 103.824C30.4492 102.934 29.4102 102.488 28.0898 102.488C25.1445 102.488 23.6719 104.258 23.6719 107.797C23.6719 109.43 23.9922 110.688 24.6328 111.57C25.2734 112.445 26.1914 112.883 27.3867 112.883C28.9336 112.883 30.1484 112.41 31.0312 111.465C31.9141 110.52 32.3555 109.199 32.3555 107.504ZM53.3906 107.844C53.3906 113.828 52.6797 116.82 51.2578 116.82C50.7109 116.82 50.4375 116.477 50.4375 115.789C50.4375 115.781 50.5703 114.891 50.8359 113.117C51.1016 111.336 51.2344 109.562 51.2344 107.797C51.2344 104.852 50.5391 103.379 49.1484 103.379C47.9297 103.379 47.1289 104.121 46.7461 105.605C46.457 106.746 46.3125 108.988 46.3125 112.332C46.3125 112.848 46.3516 113.418 46.4297 114.043C46.5078 114.66 46.5469 115.023 46.5469 115.133C46.5469 115.906 46.1797 116.293 45.4453 116.293C44.5625 116.293 44.1211 114.883 44.1211 112.062C44.1211 110.875 44.1641 109.637 44.25 108.348C44.3438 107.051 44.3906 106.355 44.3906 106.262C44.3906 105.105 43.7812 104.527 42.5625 104.527C41.4219 104.527 40.5938 105.039 40.0781 106.062C39.5781 107.055 39.3281 108.625 39.3281 110.773C39.3281 112.156 39.3672 113.445 39.4453 114.641C39.5234 115.828 39.5625 116.328 39.5625 116.141C39.5625 116.438 39.4531 116.684 39.2344 116.879C39.0234 117.074 38.75 117.172 38.4141 117.172C37.7188 117.172 37.2891 116.508 37.125 115.18C37.0703 114.797 37.043 113.805 37.043 112.203C37.043 108.852 37.3164 105.652 37.8633 102.605C38.043 101.605 38.2227 100.941 38.4023 100.613C38.6133 100.215 38.9531 100.016 39.4219 100.016C40.1562 100.016 40.5234 100.406 40.5234 101.188C40.5234 101.188 40.3477 102.07 39.9961 103.836C40.668 102.891 41.6289 102.418 42.8789 102.418C43.8789 102.418 44.6641 102.832 45.2344 103.66C46.2266 102.027 47.625 101.211 49.4297 101.211C52.0703 101.211 53.3906 103.422 53.3906 107.844ZM67.8516 105.992C67.8516 106.805 67.5703 107.406 67.0078 107.797C66.7578 107.969 65.9648 108.191 64.6289 108.465C62.8555 108.832 61.3438 109.016 60.0938 109.016C59.5234 109.016 58.8359 108.977 58.0312 108.898C58.0312 111.844 59.1523 113.316 61.3945 113.316C62.0117 113.316 62.5703 113.141 63.0703 112.789C63.3203 112.617 63.7695 112.199 64.418 111.535C64.6523 111.293 64.8984 111.172 65.1562 111.172C65.4844 111.172 65.7656 111.297 66 111.547C66.2422 111.789 66.3633 112.09 66.3633 112.449C66.3633 112.746 66.25 113.02 66.0234 113.27C64.6797 114.738 63.1055 115.473 61.3008 115.473C57.5664 115.473 55.6992 113.312 55.6992 108.992C55.6992 106.766 56.293 104.844 57.4805 103.227C58.832 101.391 60.5039 100.473 62.4961 100.473C64.0508 100.473 65.332 100.992 66.3398 102.031C67.3477 103.07 67.8516 104.391 67.8516 105.992ZM65.5195 106.133C65.4727 105.047 65.1875 104.188 64.6641 103.555C64.1484 102.922 63.5 102.605 62.7188 102.605C61.7031 102.605 60.8086 102.969 60.0352 103.695C59.2383 104.43 58.6445 105.469 58.2539 106.812C58.8086 106.875 59.3984 106.906 60.0234 106.906C61.5391 106.906 63.3711 106.648 65.5195 106.133ZM82.9102 99.9219C82.9102 100.625 82.4297 100.977 81.4688 100.977C81.6016 100.977 80.75 100.871 78.9141 100.66C77.0312 100.441 75.0664 100.324 73.0195 100.309C73.293 101.621 73.4531 103.461 73.5 105.828C73.8359 105.844 74.3008 105.852 74.8945 105.852C75.8789 105.852 76.8359 105.812 77.7656 105.734C78.6953 105.648 79.1289 105.605 79.0664 105.605C79.9492 105.605 80.3906 106 80.3906 106.789C80.3906 107.477 79.668 107.906 78.2227 108.078C77.8164 108.125 76.7617 108.148 75.0586 108.148H73.5C73.4453 111.992 73.3281 114.551 73.1484 115.824C72.9141 117.48 72.4492 118.309 71.7539 118.309C71.0195 118.309 70.6523 117.93 70.6523 117.172C70.6523 117.43 70.7422 116.551 70.9219 114.535C71.1094 112.512 71.2031 110.352 71.2031 108.055C71.2031 104.641 71.0352 102.129 70.6992 100.52C69.793 100.699 69.1523 100.789 68.7773 100.789C67.9102 100.789 67.4766 100.387 67.4766 99.582C67.4766 98.543 69.6523 98.0234 74.0039 98.0234C76.8008 98.0234 79.1875 98.1992 81.1641 98.5508C82.3281 98.7617 82.9102 99.2188 82.9102 99.9219ZM95.625 107.48C95.625 109.777 94.9531 111.609 93.6094 112.977C92.2656 114.336 90.4727 115.016 88.2305 115.016C86.3711 115.016 84.9141 114.383 83.8594 113.117C82.8047 111.844 82.2773 110.078 82.2773 107.82C82.2773 105.445 82.9141 103.602 84.1875 102.289C85.4375 101 87.1719 100.355 89.3906 100.355C91.25 100.355 92.7539 101.008 93.9023 102.312C95.0508 103.617 95.625 105.34 95.625 107.48ZM93.293 107.504C93.293 105.934 92.9102 104.707 92.1445 103.824C91.3867 102.934 90.3477 102.488 89.0273 102.488C86.082 102.488 84.6094 104.258 84.6094 107.797C84.6094 109.43 84.9297 110.688 85.5703 111.57C86.2109 112.445 87.1289 112.883 88.3242 112.883C89.8711 112.883 91.0859 112.41 91.9688 111.465C92.8516 110.52 93.293 109.199 93.293 107.504ZM110.367 107.48C110.367 109.777 109.695 111.609 108.352 112.977C107.008 114.336 105.215 115.016 102.973 115.016C101.113 115.016 99.6562 114.383 98.6016 113.117C97.5469 111.844 97.0195 110.078 97.0195 107.82C97.0195 105.445 97.6562 103.602 98.9297 102.289C100.18 101 101.914 100.355 104.133 100.355C105.992 100.355 107.496 101.008 108.645 102.312C109.793 103.617 110.367 105.34 110.367 107.48ZM108.035 107.504C108.035 105.934 107.652 104.707 106.887 103.824C106.129 102.934 105.09 102.488 103.77 102.488C100.824 102.488 99.3516 104.258 99.3516 107.797C99.3516 109.43 99.6719 110.688 100.312 111.57C100.953 112.445 101.871 112.883 103.066 112.883C104.613 112.883 105.828 112.41 106.711 111.465C107.594 110.52 108.035 109.199 108.035 107.504ZM124.969 98.2695C124.969 98.2227 124.922 98.8086 124.828 100.027C124.727 101.441 124.641 102.945 124.57 104.539C124.484 106.836 124.441 109.281 124.441 111.875C124.441 112.406 124.445 112.953 124.453 113.516C124.461 114.07 124.465 114.363 124.465 114.395C124.465 115.559 124.098 116.141 123.363 116.141C122.559 116.141 122.156 115.484 122.156 114.172C122.156 113.867 122.164 113.629 122.18 113.457C120.703 114.91 118.992 115.637 117.047 115.637C115.422 115.637 114.133 115.113 113.18 114.066C112.234 113.012 111.762 111.566 111.762 109.73C111.762 107.23 112.449 105.211 113.824 103.672C115.207 102.133 117.016 101.363 119.25 101.363C120.289 101.363 121.363 101.602 122.473 102.078C122.527 99.9141 122.602 98.6172 122.695 98.1875C122.867 97.3906 123.297 96.9922 123.984 96.9922C124.641 96.9922 124.969 97.418 124.969 98.2695ZM122.355 104.363C121.332 103.723 120.305 103.402 119.273 103.402C117.68 103.402 116.422 103.953 115.5 105.055C114.578 106.148 114.117 107.637 114.117 109.52C114.117 110.809 114.426 111.812 115.043 112.531C115.668 113.242 116.527 113.598 117.621 113.598C118.996 113.598 120.043 113.141 120.762 112.227C120.965 111.922 121.164 111.613 121.359 111.301C121.586 110.973 121.867 110.777 122.203 110.715C122.203 108.52 122.254 106.402 122.355 104.363ZM131.215 115.859C131.215 116.391 131.18 116.754 131.109 116.949C130.977 117.293 130.684 117.465 130.23 117.465C129.488 117.465 129.051 116.863 128.918 115.66C128.691 113.629 128.578 110.848 128.578 107.316C128.578 103.371 128.633 100.945 128.742 100.039C128.867 99.0469 129.262 98.5508 129.926 98.5508C130.707 98.5508 131.098 99.0234 131.098 99.9688C131.098 100.203 131.055 101.137 130.969 102.77C130.883 104.395 130.84 105.895 130.84 107.27C130.84 108.473 130.902 110.031 131.027 111.945C131.152 113.852 131.215 115.156 131.215 115.859ZM143.156 101.094C143.156 102.078 142.758 103.781 141.961 106.203C141.227 108.438 139.906 111.27 138 114.699C137.617 115.473 137.23 116.246 136.84 117.02C136.504 117.621 136.105 117.922 135.645 117.922C135.371 117.922 135.121 117.805 134.895 117.57C134.676 117.336 134.566 117.078 134.566 116.797C134.566 116.289 134.91 115.441 135.598 114.254C137.176 111.512 137.992 110.094 138.047 110C136.516 107.938 135.305 106.016 134.414 104.234C133.703 102.82 133.348 101.863 133.348 101.363C133.348 100.66 133.684 100.309 134.355 100.309C134.777 100.309 135.199 100.676 135.621 101.41C136.004 102.23 136.383 103.051 136.758 103.871C137.43 105.301 138.203 106.633 139.078 107.867C139.656 106.375 140.117 104.82 140.461 103.203C140.828 101.523 141.016 100.668 141.023 100.637C141.25 99.9961 141.602 99.6758 142.078 99.6758C142.797 99.6758 143.156 100.148 143.156 101.094Z" fill="white"/>
<path d="M17.572 147.132C17.164 147.132 16.816 146.796 16.816 146.4C16.816 145.992 17.164 145.644 17.572 145.644C17.98 145.644 18.328 145.992 18.328 146.4C18.328 146.796 17.98 147.132 17.572 147.132ZM20.7126 147.132C20.3046 147.132 19.9566 146.796 19.9566 146.4C19.9566 145.992 20.3046 145.644 20.7126 145.644C21.1206 145.644 21.4686 145.992 21.4686 146.4C21.4686 146.796 21.1206 147.132 20.7126 147.132ZM23.8533 147.132C23.4453 147.132 23.0973 146.796 23.0973 146.4C23.0973 145.992 23.4453 145.644 23.8533 145.644C24.2613 145.644 24.6093 145.992 24.6093 146.4C24.6093 146.796 24.2613 147.132 23.8533 147.132ZM25.6555 143.928C25.6555 142.344 26.6755 141.036 28.3795 141.036C29.3875 141.036 30.1555 141.504 30.5275 142.356L30.6115 141.192H31.3315V146.82C31.3315 148.548 30.2275 149.676 28.5235 149.676C27.0355 149.676 25.9915 148.836 25.7635 147.432H26.5915C26.7715 148.368 27.4915 148.92 28.5355 148.92C29.7235 148.92 30.5155 148.116 30.5155 146.904V145.524C30.1195 146.34 29.3155 146.82 28.3195 146.82C26.6635 146.82 25.6555 145.512 25.6555 143.928ZM26.4835 143.916C26.4835 145.104 27.2155 146.076 28.4395 146.076C29.6995 146.076 30.4435 145.164 30.4435 143.916C30.4435 142.68 29.7235 141.768 28.4515 141.768C27.2035 141.768 26.4835 142.74 26.4835 143.916ZM32.6513 144.096C32.6513 142.32 33.8993 141.036 35.6033 141.036C37.3073 141.036 38.5553 142.32 38.5553 144.096C38.5553 145.86 37.3073 147.144 35.6033 147.144C33.8993 147.144 32.6513 145.86 32.6513 144.096ZM33.4913 144.084C33.4913 145.452 34.3553 146.4 35.6033 146.4C36.8393 146.4 37.7153 145.452 37.7153 144.084C37.7153 142.74 36.8393 141.78 35.6033 141.78C34.3553 141.78 33.4913 142.74 33.4913 144.084ZM39.4716 144.096C39.4716 142.32 40.7196 141.036 42.4236 141.036C44.1276 141.036 45.3756 142.32 45.3756 144.096C45.3756 145.86 44.1276 147.144 42.4236 147.144C40.7196 147.144 39.4716 145.86 39.4716 144.096ZM40.3116 144.084C40.3116 145.452 41.1756 146.4 42.4236 146.4C43.6596 146.4 44.5356 145.452 44.5356 144.084C44.5356 142.74 43.6596 141.78 42.4236 141.78C41.1756 141.78 40.3116 142.74 40.3116 144.084ZM48.9799 147.144C47.2879 147.144 46.2919 145.848 46.2919 144.108C46.2919 142.356 47.2879 141.036 49.0159 141.036C49.9759 141.036 50.7439 141.456 51.1519 142.296V138.252H51.9799V147H51.2599L51.1759 145.812C50.7679 146.712 49.9519 147.144 48.9799 147.144ZM49.1239 146.388C50.3959 146.388 51.1399 145.428 51.1399 144.084C51.1399 142.752 50.3959 141.78 49.1239 141.78C47.8639 141.78 47.1319 142.752 47.1319 144.084C47.1319 145.428 47.8639 146.388 49.1239 146.388ZM54.1158 139.596C53.7798 139.596 53.5038 139.32 53.5038 138.984C53.5038 138.648 53.7798 138.36 54.1158 138.36C54.4518 138.36 54.7398 138.648 54.7398 138.984C54.7398 139.32 54.4518 139.596 54.1158 139.596ZM53.7078 147V141.192H54.5358V147H53.7078ZM58.6984 147.144C56.9944 147.144 55.8544 145.92 55.8544 144.096C55.8544 142.284 56.9824 141.036 58.6384 141.036C60.2104 141.036 61.2784 142.152 61.2784 143.796V144.204H56.6584C56.7184 145.62 57.4624 146.436 58.7104 146.436C59.6584 146.436 60.2704 146.028 60.4864 145.26H61.2784C60.9664 146.484 60.0664 147.144 58.6984 147.144ZM58.6384 141.744C57.5464 141.744 56.8264 142.464 56.6824 143.604H60.4504C60.4504 142.488 59.7304 141.744 58.6384 141.744ZM62.1103 145.368H62.9023C62.9023 146.04 63.4063 146.46 64.2223 146.46C65.1223 146.46 65.6503 146.076 65.6503 145.452C65.6503 144.972 65.4103 144.696 64.7263 144.528L63.7303 144.276C62.7223 144.024 62.2303 143.496 62.2303 142.704C62.2303 141.684 63.0823 141.036 64.3303 141.036C65.5543 141.036 66.3463 141.708 66.3823 142.788H65.5783C65.5543 142.116 65.0863 141.72 64.3063 141.72C63.4903 141.72 63.0343 142.068 63.0343 142.692C63.0343 143.136 63.3463 143.448 63.9823 143.604L64.9783 143.856C65.9863 144.108 66.4423 144.576 66.4423 145.416C66.4423 146.46 65.5543 147.144 64.2343 147.144C62.9263 147.144 62.1103 146.448 62.1103 145.368ZM70.4855 141.192H71.3735V140.064C71.3735 138.756 72.0935 138.252 72.9815 138.252C73.1855 138.252 73.4255 138.264 73.6175 138.3V139.008H73.1255C72.3935 139.008 72.2015 139.38 72.2015 140.064V141.192H73.5695V141.888H72.2015V147H71.3735V141.888H70.4855V141.192ZM77.732 141.12V141.864H77.276C76.208 141.864 75.524 142.584 75.524 143.688V147H74.696V141.192H75.476L75.536 142.092C75.764 141.468 76.376 141.06 77.192 141.06C77.372 141.06 77.528 141.072 77.732 141.12ZM78.2021 144.096C78.2021 142.32 79.4501 141.036 81.1541 141.036C82.8581 141.036 84.1061 142.32 84.1061 144.096C84.1061 145.86 82.8581 147.144 81.1541 147.144C79.4501 147.144 78.2021 145.86 78.2021 144.096ZM79.0421 144.084C79.0421 145.452 79.9061 146.4 81.1541 146.4C82.3901 146.4 83.2661 145.452 83.2661 144.084C83.2661 142.74 82.3901 141.78 81.1541 141.78C79.9061 141.78 79.0421 142.74 79.0421 144.084ZM86.2584 147H85.4304V141.192H86.1504L86.2464 142.02C86.5344 141.408 87.1824 141.036 87.9984 141.036C88.9104 141.036 89.5944 141.516 89.8704 142.272C90.1344 141.516 90.8424 141.036 91.7784 141.036C93.0384 141.036 93.8664 141.852 93.8664 143.196V147H93.0624V143.364C93.0624 142.368 92.5104 141.78 91.6224 141.78C90.6504 141.78 90.0744 142.512 90.0744 143.412V147H89.2584V143.352C89.2584 142.368 88.6944 141.792 87.8184 141.792C86.8464 141.792 86.2584 142.512 86.2584 143.4V147ZM99.6881 146.988H98.8601V138.252H99.6881V142.2C100.06 141.504 100.768 141.036 101.74 141.036C103.264 141.036 103.948 141.984 103.948 143.448V147H103.12V143.628C103.12 142.272 102.484 141.792 101.584 141.792C100.336 141.792 99.6881 142.716 99.6881 143.832V146.988ZM105.19 144.096C105.19 142.32 106.438 141.036 108.142 141.036C109.846 141.036 111.094 142.32 111.094 144.096C111.094 145.86 109.846 147.144 108.142 147.144C106.438 147.144 105.19 145.86 105.19 144.096ZM106.03 144.084C106.03 145.452 106.894 146.4 108.142 146.4C109.378 146.4 110.254 145.452 110.254 144.084C110.254 142.74 109.378 141.78 108.142 141.78C106.894 141.78 106.03 142.74 106.03 144.084ZM113.247 147H112.419V141.192H113.139L113.235 142.02C113.523 141.408 114.171 141.036 114.987 141.036C115.899 141.036 116.583 141.516 116.859 142.272C117.123 141.516 117.831 141.036 118.767 141.036C120.027 141.036 120.855 141.852 120.855 143.196V147H120.051V143.364C120.051 142.368 119.499 141.78 118.611 141.78C117.639 141.78 117.063 142.512 117.063 143.412V147H116.247V143.352C116.247 142.368 115.683 141.792 114.807 141.792C113.835 141.792 113.247 142.512 113.247 143.4V147ZM124.956 147.144C123.252 147.144 122.112 145.92 122.112 144.096C122.112 142.284 123.24 141.036 124.896 141.036C126.468 141.036 127.536 142.152 127.536 143.796V144.204H122.916C122.976 145.62 123.72 146.436 124.968 146.436C125.916 146.436 126.528 146.028 126.744 145.26H127.536C127.224 146.484 126.324 147.144 124.956 147.144ZM124.896 141.744C123.804 141.744 123.084 142.464 122.94 143.604H126.708C126.708 142.488 125.988 141.744 124.896 141.744Z" fill="white"/>
</svg>
