<svg width="32" height="32" viewBox="0 0 32 32" fill="none" xmlns="http://www.w3.org/2000/svg">
<rect x="1" y="1" width="30" height="30" rx="15" stroke="#51BA65" stroke-width="2"/>
<path d="M10.7442 17.3814L10.7451 17.3817C10.9396 17.4491 11.1324 17.4934 11.3289 17.5227C11.3308 17.523 11.3327 17.5233 11.3347 17.5237C11.4039 17.5352 11.4979 17.5509 11.5974 17.5531C11.7066 17.5667 11.8203 17.5734 11.9275 17.5734C12.6584 17.5734 13.3783 17.3336 13.9765 16.9144C14.5545 17.3349 15.261 17.5734 16.0075 17.5734C16.7514 17.5734 17.4538 17.3468 18.0331 16.9218C18.6226 17.3339 19.3296 17.5734 20.0541 17.5734C20.1769 17.5734 20.3082 17.5664 20.4285 17.5517C20.5063 17.5452 20.5818 17.5377 20.6659 17.5228C20.8943 17.4916 21.0955 17.431 21.2796 17.3696L21.2811 17.3691C21.4825 17.3009 21.6875 17.4527 21.6875 17.6534V19.5601C21.6875 21.1431 20.4029 22.4334 18.8141 22.4334H13.2008C11.6178 22.4334 10.3275 21.1489 10.3275 19.5601V17.6667C10.3275 17.4587 10.5323 17.3074 10.7442 17.3814Z" fill="#51BA65" stroke="#51BA65" stroke-width="0.666667"/>
<path d="M10.1382 15.4036L10.1382 15.4036L10.1365 15.4014C9.78534 14.9524 9.62018 14.372 9.67897 13.7658C9.67898 13.7658 9.67898 13.7657 9.67899 13.7656L9.85161 12.0129C9.98371 11.0751 10.2518 10.4827 10.655 10.1181C11.0563 9.7552 11.6487 9.56673 12.5472 9.56673H14.0872H15.0406H16.9872H17.9339H19.4406C20.3391 9.56673 20.9338 9.75523 21.3362 10.1165C21.74 10.4789 22.0077 11.0665 22.1363 11.9937L22.3222 13.7599C22.3222 13.7602 22.3223 13.7604 22.3223 13.7607C22.3809 14.3484 22.2277 14.9103 21.8943 15.3528L21.8942 15.3528L21.89 15.3586C21.476 15.9336 20.8125 16.2667 20.0606 16.2667C19.3696 16.2667 18.7043 15.9259 18.2702 15.3686L17.9904 15.0094L17.7325 15.3846C17.3562 15.932 16.7333 16.2667 16.0139 16.2667C15.2971 16.2667 14.6548 15.9144 14.2841 15.3612L14.023 14.9715L13.7409 15.3463C13.3136 15.9141 12.6366 16.2667 11.9406 16.2667C11.206 16.2667 10.5589 15.9512 10.1382 15.4036ZM16.8339 11.8201V11.6801C16.8339 11.2226 16.458 10.8467 16.0006 10.8467C15.5431 10.8467 15.1672 11.2226 15.1672 11.6801V11.8201H15.0006C14.5431 11.8201 14.1672 12.196 14.1672 12.6534C14.1672 13.1204 14.546 13.4867 15.0006 13.4867H15.1672V13.6734C15.1672 14.1404 15.546 14.5067 16.0006 14.5067C16.4551 14.5067 16.8339 14.1404 16.8339 13.6734V13.4867H17.0006C17.4551 13.4867 17.8339 13.1204 17.8339 12.6534C17.8339 12.196 17.458 11.8201 17.0006 11.8201H16.8339Z" fill="#51BA65" stroke="#51BA65" stroke-width="0.666667"/>
</svg>
